<?xml version="1.0" standalone="no"?><!DOCTYPE svg PUBLIC "-//W3C//DTD SVG 1.1//EN" "http://www.w3.org/Graphics/SVG/1.1/DTD/svg11.dtd"><svg width="32" height="32" viewBox="0 0 32 32" version="1.1" xmlns="http://www.w3.org/2000/svg" xmlns:xlink="http://www.w3.org/1999/xlink"><defs><style type="text/css"><![CDATA[
@font-face { font-family: ifont; src: url(http://at.alicdn.com/t/font_1442373896_4754455.eot?#iefix) format(embedded-opentype), url(http://at.alicdn.com/t/font_1442373896_4754455.woff) format(woff), url(http://at.alicdn.com/t/font_1442373896_4754455.ttf) format(truetype), url(http://at.alicdn.com/t/font_1442373896_4754455.svg#ifont) format(svg); }

]]></style></defs><g class="transform-group"><g transform="scale(0.03125, 0.03125)"><path d="M755.362 786.080c-4.059 0-8.137-1.343-11.52-4.112l-137.947-112.781c-7.798-6.373-8.956-17.867-2.581-25.657 6.393-7.78 17.858-8.956 25.657-2.581l137.947 112.781c7.797 6.373 8.956 17.866 2.581 25.657-3.614 4.406-8.848 6.695-14.138 6.695zM351.258 368.651h64.7c10.772 0 19.051 2.67 24.836 8.012 5.769 5.341 8.653 11.955 8.653 19.834 0 6.614-2.065 12.285-6.178 17.013-2.743 3.159-6.765 5.644-12.053 7.478 8.031 1.931 13.942 5.253 17.734 9.962 3.792 4.7 5.678 10.611 5.678 17.734 0 5.804-1.335 11.013-4.042 15.642-2.689 4.628-6.373 8.288-11.056 10.985-2.903 1.682-7.282 2.903-13.123 3.668-7.78 1.015-12.944 1.523-15.489 1.523h-59.662v-111.846zM386.121 412.521h15.044c5.378 0 9.133-0.926 11.253-2.787 2.103-1.852 3.152-4.54 3.152-8.048 0-3.259-1.050-5.795-3.152-7.629-2.118-1.835-5.786-2.751-11.039-2.751h-15.259v21.214zM386.121 456.462h17.627c5.947 0 10.147-1.050 12.588-3.159s3.668-4.95 3.668-8.511c0-3.302-1.211-5.964-3.633-7.967-2.404-2.010-6.641-3.019-12.693-3.019h-17.556v22.656zM556.025 480.497h-28.986v-13.123c-4.327 5.394-8.688 9.232-13.085 11.52s-9.81 3.437-16.22 3.437c-8.546 0-15.239-2.554-20.101-7.673-4.861-5.11-7.282-12.979-7.282-23.607v-51.58h31.211v44.555c0 5.093 0.926 8.695 2.813 10.834 1.887 2.137 4.522 3.204 7.941 3.204 3.702 0 6.747-1.425 9.116-4.272 2.367-2.848 3.542-7.957 3.542-15.329v-38.99h31.051v81.026zM631.266 399.472h29.057v76.523l0.090 3.588c0 5.083-1.086 9.935-3.241 14.537-2.172 4.603-5.038 8.324-8.635 11.173-3.578 2.849-8.137 4.913-13.657 6.187-5.519 1.265-11.839 1.906-18.963 1.906-16.274 0-27.455-2.439-33.526-7.327-6.070-4.879-9.116-11.422-9.116-19.611 0-1.015 0.052-2.385 0.16-4.112l30.125 3.427c0.766 2.804 1.941 4.736 3.508 5.804 2.297 1.577 5.162 2.358 8.635 2.358 4.468 0 7.815-1.193 10.023-3.578 2.208-2.393 3.329-6.561 3.329-12.518v-12.285c-3.062 3.614-6.108 6.231-9.17 7.861-4.772 2.546-9.935 3.81-15.49 3.81-10.825 0-19.567-4.727-26.243-14.192-4.718-6.713-7.087-15.589-7.087-26.627 0-12.614 3.044-22.22 9.152-28.836 6.108-6.614 14.084-9.917 23.965-9.917 6.304 0 11.5 1.069 15.596 3.204 4.096 2.135 7.924 5.671 11.483 10.602v-11.983zM602.050 438.763c0 5.849 1.246 10.183 3.738 13.006 2.475 2.822 5.767 4.238 9.829 4.238 3.862 0 7.121-1.46 9.739-4.388 2.618-2.919 3.916-7.337 3.916-13.237 0-5.902-1.371-10.414-4.112-13.539-2.742-3.124-6.108-4.69-10.077-4.69-3.952 0-7.122 1.433-9.488 4.308-2.368 2.875-3.542 7.646-3.542 14.306zM581.343 592.797h-209.645c-10.077 0-18.233-8.164-18.233-18.233s8.153-18.233 18.233-18.233h209.645c10.076 0 18.233 8.164 18.233 18.233-0.001 10.067-8.153 18.233-18.233 18.233zM531.972 674.839h-160.273c-10.077 0-18.233-8.164-18.233-18.233s8.153-18.233 18.233-18.233h160.273c10.077 0 18.233 8.164 18.233 18.233s-8.153 18.233-18.233 18.233zM631.568 784.388h-306.945c-40.612 0-73.638-33.036-73.638-73.646v-399.438c0-40.602 33.028-73.638 73.638-73.638h360.197c40.612 0 73.638 33.036 73.638 73.638v356.317c0 10.067-8.153 18.233-18.233 18.233s-18.233-8.164-18.233-18.233v-356.317c0-20.503-16.683-37.175-37.175-37.175h-360.196c-20.494 0-37.175 16.673-37.175 37.175v399.438c0 20.503 16.683 37.185 37.175 37.185h306.945c10.077 0 18.231 8.163 18.231 18.233 0 10.066-8.154 18.233-18.231 18.233z" fill="#ffffff"></path></g></g></svg>