<?xml version="1.0" standalone="no"?><!DOCTYPE svg PUBLIC "-//W3C//DTD SVG 1.1//EN" "http://www.w3.org/Graphics/SVG/1.1/DTD/svg11.dtd"><svg width="32" height="32" viewBox="0 0 32 32" version="1.1" xmlns="http://www.w3.org/2000/svg" xmlns:xlink="http://www.w3.org/1999/xlink"><defs><style type="text/css"><![CDATA[
@font-face { font-family: ifont; src: url(http://at.alicdn.com/t/font_1442373896_4754455.eot?#iefix) format(embedded-opentype), url(http://at.alicdn.com/t/font_1442373896_4754455.woff) format(woff), url(http://at.alicdn.com/t/font_1442373896_4754455.ttf) format(truetype), url(http://at.alicdn.com/t/font_1442373896_4754455.svg#ifont) format(svg); }

]]></style></defs><g class="transform-group"><g transform="scale(0.03125, 0.03125)"><path d="M557.722 491.696c-12.675 0-22.984 10.301-22.984 22.964 0 12.693 10.311 23.020 22.984 23.020s22.986-10.327 22.986-23.020c0-12.664-10.313-22.964-22.986-22.964zM762.379 314.842c0-17.684-14.389-32.070-32.069-32.070h-345.175c-17.684 0-32.070 14.385-32.070 32.070v32.069h27.807v-36.331h353.703v226.514h-36.332v27.806h32.070c17.682 0 32.070-14.388 32.070-32.069v-217.987h-0.001zM762.379 314.842zM466.89 491.696c-12.677 0-22.99 10.301-22.99 22.964 0 12.693 10.313 23.020 22.99 23.020 12.674 0 22.985-10.327 22.985-23.020 0-12.664-10.313-22.964-22.985-22.964zM671.545 405.677c0-17.684-14.389-32.069-32.070-32.069h-345.175c-17.685 0-32.070 14.386-32.070 32.069v217.988c0 17.682 14.385 32.070 32.070 32.070h40.598v84.835l84.805-84.835h219.772c17.682 0 32.070-14.389 32.070-32.069v-217.988zM641.961 626.15h-234.505l-42.976 42.973v-42.973h-72.667v-222.961h350.149v222.961zM641.961 626.15zM376.050 491.696c-12.675 0-22.986 10.301-22.986 22.964 0 12.693 10.313 23.020 22.986 23.020s22.986-10.327 22.986-23.020c0-12.664-10.313-22.964-22.986-22.964z" fill="#ffffff"></path></g></g></svg>