<?xml version="1.0" standalone="no"?><!DOCTYPE svg PUBLIC "-//W3C//DTD SVG 1.1//EN" "http://www.w3.org/Graphics/SVG/1.1/DTD/svg11.dtd"><svg width="32" height="32" viewBox="0 0 32 32" version="1.1" xmlns="http://www.w3.org/2000/svg" xmlns:xlink="http://www.w3.org/1999/xlink"><defs><style type="text/css"><![CDATA[
@font-face { font-family: ifont; src: url(http://at.alicdn.com/t/font_1442373896_4754455.eot?#iefix) format(embedded-opentype), url(http://at.alicdn.com/t/font_1442373896_4754455.woff) format(woff), url(http://at.alicdn.com/t/font_1442373896_4754455.ttf) format(truetype), url(http://at.alicdn.com/t/font_1442373896_4754455.svg#ifont) format(svg); }

]]></style></defs><g class="transform-group"><g transform="scale(0.03125, 0.03125)"><path d="M342.386 771.263l28.667-117.595c0.927-4.62 6.454-8.325 11.065-6.471 4.629 0.926 8.315 6.471 6.471 11.103l-17.547 71.297 120.16-81.484c4.611-2.787 10.166-1.852 12.926 2.778s1.841 10.194-2.787 12.954l-158.957 107.418zM383.015 479.591c0 10.227 8.291 18.518 18.518 18.518s18.518-8.291 18.518-18.518c0-10.228-8.291-18.518-18.518-18.518-10.227 0-18.518 8.291-18.518 18.518zM499.463 479.591c0 10.227 8.291 18.518 18.518 18.518s18.518-8.291 18.518-18.518c0-10.228-8.291-18.518-18.518-18.518-10.227 0-18.518 8.291-18.518 18.518zM612.243 479.591c0 10.227 8.291 18.518 18.518 18.518s18.518-8.291 18.518-18.518c0-10.228-8.291-18.518-18.518-18.518-10.227 0-18.518 8.291-18.518 18.518zM725.958 664.782h-230.143c-5.536 0-9.241-4.629-9.241-9.261 0-5.566 3.703-9.26 9.241-9.26h230.143c14.798 0 26.814-12.953 26.814-27.779v-318.524c0-15.73-12.029-27.779-26.814-27.779h-427.932c-14.797 0-26.807 12.963-26.807 27.779v318.524c0 15.741 12.009 27.779 26.807 27.779h79.482c5.557 0 9.241 4.629 9.241 9.261 0 5.566-3.685 9.261-9.241 9.261h-79.482c-24.964 0-45.289-21.297-45.289-47.231v-317.589c0-25.925 20.324-47.223 45.289-47.223h427.942c24.954 0 45.297 21.297 45.297 47.223v318.524c0 24.99-20.342 46.297-45.306 46.297z" fill="#ffffff"></path></g></g></svg>