<?xml version="1.0" standalone="no"?><!DOCTYPE svg PUBLIC "-//W3C//DTD SVG 1.1//EN" "http://www.w3.org/Graphics/SVG/1.1/DTD/svg11.dtd"><svg width="64" height="64" viewBox="0 0 64 64" version="1.1" xmlns="http://www.w3.org/2000/svg" xmlns:xlink="http://www.w3.org/1999/xlink"><defs><style type="text/css"><![CDATA[
@font-face { font-family: ifont; src: url(http://at.alicdn.com/t/font_1442373896_4754455.eot?#iefix) format(embedded-opentype), url(http://at.alicdn.com/t/font_1442373896_4754455.woff) format(woff), url(http://at.alicdn.com/t/font_1442373896_4754455.ttf) format(truetype), url(http://at.alicdn.com/t/font_1442373896_4754455.svg#ifont) format(svg); }

]]></style></defs><g class="transform-group"><g transform="scale(0.0625, 0.0625)"><path d="M707.083 293.6h-64.016v-11.586c0-5.6-4.539-10.14-10.14-10.14s-10.14 4.539-10.14 10.14v11.586h-221.966v-11.586c0-5.6-4.539-10.14-10.14-10.14s-10.14 4.539-10.14 10.14v11.586h-64.016c-34.543 0-62.641 28.099-62.641 62.642v323.789c0 34.543 28.099 62.642 62.641 62.642h267.822c0.099 0 0.217 0 0.316 0 0.086 0 9.151-0.202 20.466 2.206 18.59 3.953 28.843 11.758 34.185 17.601 2.004 2.192 4.74 3.294 7.491 3.294 2.435 0 4.884-0.875 6.831-2.65 4.139-3.781 4.425-10.183 0.645-14.322-24.533-26.866-66.522-26.494-70.061-26.407h-267.692c-23.357 0-42.378-19.005-42.378-42.377v-323.775c0-23.372 19.005-42.378 42.378-42.378h64.016v14.766c0 5.6 4.54 10.14 10.14 10.14s10.14-4.539 10.14-10.14v-14.766h221.951v14.766c0 5.6 4.539 10.14 10.14 10.14s10.14-4.539 10.14-10.14v-14.766h64.016c23.358 0 42.378 19.005 42.378 42.378v323.789c0 23.372-19.005 42.377-42.378 42.377h-21.124c-5.6 0-10.14 4.539-10.14 10.14s4.539 10.14 10.14 10.14h21.124c34.543 0 62.641-28.099 62.641-62.642v-323.804c0.015-34.543-28.085-62.642-62.627-62.642zM453.598 530.303c22.113-14.062 43.222-29.645 43.222-61.067 0-33.168-24.875-51.27-55.796-51.27-37.694 0-59.305 26.895-57.3 63.071h21.367c-0.758-21.351 9.795-44.224 34.672-44.224 18.846 0 34.429 12.817 34.429 32.166 0 24.876-15.323 35.43-45.485 54.278-25.134 15.081-46.745 30.906-50.010 72.881h116.361v-18.832h-91.469c4.025-21.869 27.898-33.669 50.010-47.003zM579.969 580.327c-21.367 0-36.189-13.821-37.449-32.167h-21.353c0.758 32.167 25.879 51.026 56.798 51.026 41.461 0 62.326-29.158 62.326-59.319 0-40.958-25.879-61.067-57.557-61.067-12.058 0-25.377 4.011-33.167 12.817l-0.502-0.502 9.553-51.27h71.878v-18.832h-87.962l-16.585 92.471 18.345 1.003c8.292-10.054 19.348-16.842 33.168-16.842 24.132 0 40.213 17.085 40.213 40.458 0 28.14-17.344 42.218-37.708 42.218z" fill="#fff"></path></g></g></svg>