<?xml version="1.0" standalone="no"?><!DOCTYPE svg PUBLIC "-//W3C//DTD SVG 1.1//EN" "http://www.w3.org/Graphics/SVG/1.1/DTD/svg11.dtd"><svg t="1492411224235" class="icon" style="" viewBox="0 0 1024 1024" version="1.1" xmlns="http://www.w3.org/2000/svg" p-id="3519" xmlns:xlink="http://www.w3.org/1999/xlink" width="32" height="32"><defs><style type="text/css"></style></defs><path d="M529.6896 17.74592c16.39424 4.97664 33.07008 9.22112 49.14688 15.03744 93.88544 33.9712 153.59488 126.76096 142.67904 221.03552-11.392 98.2016-93.60384 178.22208-194.5856 189.37344C412.4416 455.83872 308.2752 390.3488 279.2448 287.47776 245.77536 168.86784 325.64736 45.51168 451.09248 21.95968c5.36576-1.00864 10.57792-2.7904 15.86688-4.21376C487.86432 17.74592 508.7744 17.74592 529.6896 17.74592z" p-id="3520" fill="#ffffff"></path><path d="M512.96256 973.83936c-17.32608-9.61024-30.6176-21.49376-25.38496-43.60192 4.99712-21.08416 21.63712-26.46528 45.2864-27.55072-11.65312-15.31392-21.25824-27.92448-31.60064-41.50784 13.2096-11.63776 25.984-22.90176 39.65952-34.95424 68.20352 62.91456 147.33824 83.67616 241.23392 52.4544-51.95264-47.78496-101.90336-93.71136-153.45664-141.11232-6.47168 7.0656-18.47296 20.1728-29.88544 32.64-22.4-22.89152-43.36128-44.30336-63.6416-65.024 32.73216-33.04448 68.6336-69.75488 105.35936-105.67168 4.0448-3.95264 12.7232-3.98848 19.38432-4.608 9.6512-0.89088 19.54816 0.2304 29.10208-1.16224 9.44128-1.3824 18.51392-5.00224 27.86304-7.17824 1.52064-0.35328 3.968 1.30048 5.39648 2.63168 10.4704 9.82528 20.80256 19.80416 30.90944 29.47584-18.8672 19.67616-36.37248 37.9392-49.00864 51.12832 45.71648 48.95744 92.16 98.68288 139.60192 149.49888 20.79232-20.58752 23.50592-42.11712 24.43776-63.49824 4.20352-95.55968-41.12896-163.66592-124.02688-210.42688-4.7616-2.68288-9.76896-4.97152-14.61248-7.5264-0.512-0.26624-0.6912-1.12128-1.03424-1.69984 33.06496-5.31456 91.19232 11.91424 130.72896 39.296 48.27648 33.43872 77.41952 78.99136 88.82688 135.6032 0.92672 4.58752 2.64192 9.04704 3.97824 13.54752 0 17.70496 0 35.41504 0 53.12-12.55936 33.13664-25.11872 66.26304-40.40704 106.5728 8.35072 6.35904 21.7856 16.58368 35.05152 26.68032-20.7872 22.76864-39.08096 42.81856-57.37472 62.86336-1.39264 0-2.7904 0-4.18304 0-9.83552-10.32192-19.1488-21.20192-29.80352-30.63808-3.67616-3.2512-11.55584-5.27872-16.06144-3.76832-32.32256 10.88-64.26624 22.8096-96.32256 34.41152-19.52256 0-39.03488 0-58.5472 0-40.07936-13.66528-80.1536-27.32544-116.08064-39.5776-10.96704 12.59008-22.72256 26.0864-34.47808 39.5776C526.8992 973.83936 519.92064 973.83936 512.96256 973.83936z" p-id="3521" fill="#ffffff"></path><path d="M465.92512 704.61952c11.776 17.46944 22.92736 32.31232 31.93856 48.29696 3.3024 5.8624 4.44928 15.81568 1.6128 21.57056-27.6736 56.25344-56.22272 112.10752-85.12 167.78752-2.66752 5.1456-9.6512 11.97056-14.3104 11.73504-64.48128-3.16416-129.54624-3.26656-193.152-12.66176-58.16832-8.58112-71.7056-29.952-70.07744-86.96832 2.92352-102.23104 27.2384-197.97504 97.38752-277.53472 47.60576-53.98016 109.3888-80.24064 182.20032-80.88064 59.88864-0.52736 119.79264-0.256 179.68128 0.04608 9.64096 0.0512 19.47136 1.19808 28.84608 3.35872 26.09152 6.02624 31.84128 20.25472 15.21152 40.93952-10.6496 13.24544-24.1152 24.3968-36.66432 36.13696C557.78304 619.17696 511.9488 661.75488 465.92512 704.61952z" p-id="3522" fill="#ffffff"></path></svg>