<?xml version="1.0" standalone="no"?><!DOCTYPE svg PUBLIC "-//W3C//DTD SVG 1.1//EN" "http://www.w3.org/Graphics/SVG/1.1/DTD/svg11.dtd"><svg width="64" height="64" viewBox="0 0 64 64" version="1.1" xmlns="http://www.w3.org/2000/svg" xmlns:xlink="http://www.w3.org/1999/xlink"><defs><style type="text/css"><![CDATA[
@font-face { font-family: ifont; src: url(http://at.alicdn.com/t/font_1442373896_4754455.eot?#iefix) format(embedded-opentype), url(http://at.alicdn.com/t/font_1442373896_4754455.woff) format(woff), url(http://at.alicdn.com/t/font_1442373896_4754455.ttf) format(truetype), url(http://at.alicdn.com/t/font_1442373896_4754455.svg#ifont) format(svg); }

]]></style></defs><g class="transform-group"><g transform="scale(0.0625, 0.0625)"><path d="M584.331 606.622c0.843 0.574 1.5 1.061 2.196 1.489 14.478 8.874 30.191 13.185 47.188 13.001 39.256-0.424 75.057-28.090 83.416-68.332 6.682-32.17-2.592-59.802-26.289-82.577-0.867-0.834-1.697-1.236-3.030-1.048-5.252 0.738-10.267-2.643-11.566-7.874-0.414-1.675-1.25-2.573-2.683-3.331-15.668-8.295-32.337-11.68-49.959-9.923-38.117 3.796-69.389 32.453-76.576 69.975-2.21 11.538-2.126 23.052 0.365 34.522 0.807 3.711 0.502 7.087-1.798 10.217-0.341 0.465-0.435 1.268-0.348 1.874 0.749 5.164-1.113 9.015-5.474 11.881-10.26 6.742-20.449 13.595-30.671 20.395-5.124 3.409-8.978 3.384-14.173-0.071-7.492-4.985-14.982-9.973-22.474-14.957-0.688-0.457-1.395-0.886-2.285-1.45-0.459 0.834-0.864 1.534-1.238 2.251-15.203 29.207-38.527 48.733-70.496 56.643-36.541 9.041-69.458 0.724-98.285-23.539-3.819-3.215-5.167-7.258-3.701-12.094 0.661-2.182 2.113-3.831 3.818-5.312 11.121-9.646 22.217-19.32 33.322-28.983 24.515-21.326 49.037-42.646 73.533-63.995 2.384-2.077 4.938-3.52 8.203-3.469 4.337 0.069 8.302 2.593 9.856 6.609 1.625 4.191 0.994 8.101-2.047 11.497-0.759 0.848-1.665 1.568-2.527 2.318-31.59 27.489-63.182 54.974-94.775 82.46-0.625 0.547-1.245 1.101-2.060 1.819 0.836 0.569 1.494 1.055 2.188 1.483 11.213 6.9 23.342 11.106 36.45 12.525 42.527 4.606 80.792-22.073 92.539-61.151 14.83-49.336-15.794-99.141-64.383-109.789-20.765-4.551-40.601-1.745-59.479 8.022-1.441 0.745-2.363 1.699-2.948 3.244-0.612 1.614-1.413 3.25-2.5 4.571-2.33 2.833-5.506 4.1-9.15 3.652-1.411-0.174-2.286 0.248-3.229 1.121-12.18 11.238-20.64 24.784-25.134 40.74-3.897 13.838-4.303 27.831-1.196 41.867 1.612 7.28-2.703 12.218-7.45 13.543-5.876 1.64-11.88-1.642-13.336-7.604-0.993-4.060-1.722-8.217-2.172-12.373-1.703-15.676-0.248-31.063 4.792-46.044 7.642-22.711 21.327-40.947 40.864-54.791 1.373-0.972 2.252-2.105 2.872-3.661 12.578-31.498 25.221-62.971 37.786-94.474 1.24-3.111 3.107-5.468 5.904-7.306 10.263-6.739 20.462-13.574 30.67-20.397 2.864-1.914 5.904-2.808 9.317-1.872 4.3 1.178 7.013 3.987 7.904 8.312 0.875 4.241-0.535 7.818-3.876 10.592-0.643 0.533-1.365 0.971-2.063 1.437-8.884 5.921-17.761 11.853-26.67 17.736-1.202 0.794-1.974 1.749-2.51 3.092-9.181 23.006-18.402 45.996-27.609 68.992-0.27 0.673-0.475 1.373-0.753 2.181 39.795-9.976 75.102-2.273 105.656 25.244 29.24 28.82 39.082 63.517 31.447 103.869 7.962 5.304 16.126 10.745 24.361 16.228 8.203-5.464 16.319-10.867 24.529-16.334-6.033-28.147-2.467-54.861 12.21-79.675 14.661-24.786 35.994-41.413 63.676-49.366 27.68-7.953 54.473-4.857 80.425 8.135 0.346-0.767 0.701-1.483 0.998-2.225 11.788-29.433 23.598-58.858 35.32-88.318 1.328-3.335 3.31-5.857 6.321-7.825 10.212-6.676 20.342-13.477 30.488-20.256 2.875-1.92 5.93-2.748 9.328-1.797 4.107 1.148 6.778 3.843 7.721 7.949 0.939 4.085-0.176 7.718-3.368 10.567-0.735 0.655-1.582 1.192-2.406 1.742-8.946 5.965-17.886 11.941-26.86 17.863-1.144 0.755-1.876 1.666-2.379 2.926-11.959 29.941-23.943 59.872-35.921 89.804-0.225 0.562-0.435 1.131-0.731 1.9 0.706 0.626 1.43 1.272 2.159 1.917 18.116 16.030 29.92 35.788 34.93 59.492 7.793 36.876-4.162 75.049-31.571 100.894-16.213 15.287-35.313 25.034-57.341 28.35-33.343 5.017-62.989-3.593-88.751-25.415-3.634-3.079-5.242-6.855-4.066-11.599 0.592-2.382 2.004-4.229 3.841-5.82 7.207-6.242 14.392-12.511 21.585-18.768 28.428-24.733 56.861-49.458 85.269-74.21 2.439-2.123 5.017-3.713 8.378-3.609 4.561 0.14 7.89 2.287 9.746 6.401 1.867 4.139 1.147 8.055-1.778 11.513-0.734 0.865-1.643 1.589-2.505 2.34-31.129 27.088-62.262 54.174-93.394 81.26-1.146 0.993-2.269 2.010-3.594 3.188z" fill="#fff"></path></g></g></svg>