<?xml version="1.0" standalone="no"?><!DOCTYPE svg PUBLIC "-//W3C//DTD SVG 1.1//EN" "http://www.w3.org/Graphics/SVG/1.1/DTD/svg11.dtd"><svg width="64" height="64" viewBox="0 0 64 64" version="1.1" xmlns="http://www.w3.org/2000/svg" xmlns:xlink="http://www.w3.org/1999/xlink"><defs><style type="text/css"><![CDATA[
@font-face { font-family: ifont; src: url(http://at.alicdn.com/t/font_1442373896_4754455.eot?#iefix) format(embedded-opentype), url(http://at.alicdn.com/t/font_1442373896_4754455.woff) format(woff), url(http://at.alicdn.com/t/font_1442373896_4754455.ttf) format(truetype), url(http://at.alicdn.com/t/font_1442373896_4754455.svg#ifont) format(svg); }

]]></style></defs><g class="transform-group"><g transform="scale(0.0625, 0.0625)"><path d="M724.353 299.484l-1.049-1.048c-50.692-50.513-133.050-50.631-183.591-0.257l-277.085 276.185 2.262 1.348c-2.565 2.182-3.336 5.283-3.336 8.91v165.853c0 6.553 3.463 11.007 10.029 11.007h166.414c3.614 0 6.753-1.282 8.933-3.825l0.596 0.805 277.095-276.094c50.53-50.378 50.414-132.366-0.269-182.886zM307.666 714.274c-6.322-6.296-10.46-8.093-22.344-6.334v-102.518l58.869 2.089 1.504 56.443-0.689 12.957 0.794 0.023-0.023 0.886 12.793-0.443 56.781 1.539 2.053 58.868h-104.116c2.089-11.848 0.886-17.026-5.621-23.51zM606.162 466.51l-189.772 189.164-47.731-1.644-1.725-49.585 188.804-188.197 50.424 50.263zM447.188 725.376c-0.245 0.373-0.397 0.77-0.769 1.155-1.809 1.761-3.639 3.521-5.482 5.283l-2.169-62.565 0.093-2.45 184.115-183.526 33.609 33.504-209.119 208.425c-0.070 0.081-0.188 0.092-0.279 0.175zM522.117 349.227l16.804-16.751 151.276 150.799-16.804 16.751-151.276-150.8zM295.667 574.689c0.29-0.328 0.618-0.438 0.921-0.666l208.722-208.034 33.609 33.323-185.236 184.453h-0.21l-64.874-2.052c2.426-2.327 4.769-4.567 7.066-7.026zM707.805 465.72l-0.794 0.787-151.276-150.792 0.782-0.787c41.295-41.166 108.608-41.067 150.027 0.204l1.049 1.055c41.4 41.289 41.517 108.374 0.211 149.533z" fill="#fff"></path></g></g></svg>