<?xml version="1.0" standalone="no"?><!DOCTYPE svg PUBLIC "-//W3C//DTD SVG 1.1//EN" "http://www.w3.org/Graphics/SVG/1.1/DTD/svg11.dtd"><svg width="64" height="64" viewBox="0 0 64 64" version="1.1" xmlns="http://www.w3.org/2000/svg" xmlns:xlink="http://www.w3.org/1999/xlink"><defs><style type="text/css"><![CDATA[
@font-face { font-family: ifont; src: url(http://at.alicdn.com/t/font_1442373896_4754455.eot?#iefix) format(embedded-opentype), url(http://at.alicdn.com/t/font_1442373896_4754455.woff) format(woff), url(http://at.alicdn.com/t/font_1442373896_4754455.ttf) format(truetype), url(http://at.alicdn.com/t/font_1442373896_4754455.svg#ifont) format(svg); }

]]></style></defs><g class="transform-group"><g transform="scale(0.0625, 0.0625)"><path d="M573.706 493.412h-52.361v-81.159c0-18.434-7.559-33.526-16.756-33.526-9.223 0-16.756 15.091-16.756 33.526v114.684h85.872c18.42 0 33.511-7.546 33.511-16.755s-15.104-16.769-33.511-16.769v0zM719.658 316.124c7.559 5.277 18.045 3.437 23.334-4.134 5.303-7.545 3.437-18.017-4.121-23.32l-54.884-38.438c-7.573-5.303-18.070-3.451-23.362 4.108-5.277 7.559-3.437 18.045 4.121 23.32l54.911 38.465zM305.685 322.393l51.368-43.084c7.050-5.934 7.976-16.553 2.068-23.617-5.947-7.062-16.528-8.002-23.602-2.068l-51.368 43.123c-7.062 5.907-7.976 16.528-2.041 23.576 5.893 7.062 16.513 7.961 23.576 2.068v0zM516.31 743.106c-1.248 0.014-2.47 0.189-3.705 0.189-120.107 0-217.835-97.728-217.835-217.835 0-120.107 97.713-217.835 217.835-217.835 112.253 0 204.905 85.348 216.559 194.568 7.169-0.657 14.406-1.102 21.749-1.102 4.001 0 7.894 0.389 11.828 0.604-12.016-127.492-119.571-227.594-250.137-227.594-138.594 0-251.346 112.75-251.346 251.36s112.737 251.346 251.346 251.346c2.391 0 4.7-0.282 7.062-0.349-1.879-10.889-3.008-22.019-3.355-33.35zM576.955 614.271v76.043c0 20.918 17.093 38.022 38.022 38.022h101.392c20.918 0 38.022-17.105 38.022-38.022v-76.043h-177.436zM716.368 702.989h-101.392v-12.662h101.392v12.662zM716.368 677.655h-101.392v-12.675h101.392v12.675zM716.368 652.294h-101.392v-12.675h101.392v12.675zM716.368 576.25h-101.392c-16.474 0-30.396 10.647-35.659 25.361h172.724c-5.29-14.714-19.225-25.361-35.672-25.361v0zM716.368 576.25z" fill="#fff"></path></g></g></svg>