<?xml version="1.0" standalone="no"?><!DOCTYPE svg PUBLIC "-//W3C//DTD SVG 1.1//EN" "http://www.w3.org/Graphics/SVG/1.1/DTD/svg11.dtd"><svg width="32" height="32" viewBox="0 0 32 32" version="1.1" xmlns="http://www.w3.org/2000/svg" xmlns:xlink="http://www.w3.org/1999/xlink"><defs><style type="text/css"><![CDATA[
@font-face { font-family: ifont; src: url(http://at.alicdn.com/t/font_1442373896_4754455.eot?#iefix) format(embedded-opentype), url(http://at.alicdn.com/t/font_1442373896_4754455.woff) format(woff), url(http://at.alicdn.com/t/font_1442373896_4754455.ttf) format(truetype), url(http://at.alicdn.com/t/font_1442373896_4754455.svg#ifont) format(svg); }

]]></style></defs><g class="transform-group"><g transform="scale(0.03125, 0.03125)"><path d="M684.822 469.281l-189.657 227.571-138.368-118.611 23.167-27.029 110.962 95.102 166.522-199.849 27.375 22.818zM297.147 662.079c0 54.338 40.466 98.549 90.222 98.549h246.967c49.755 0 90.223-44.211 90.223-98.549v-248.137c0-48.173-31.838-88.314-73.726-96.815 2.286 16.582 2.496 29.955 2.496 33.888h17.81v35.622h-320.568v-35.622h17.814c0-3.934 0.203-17.306 2.493-33.888-41.893 8.5-73.731 48.641-73.731 96.815v248.137zM760.177 413.944v248.137c0 73.988-56.452 134.163-125.842 134.163h-246.967c-69.392 0-125.843-60.178-125.843-134.163v-248.137c0-71.092 52.165-129.272 117.806-133.725 9.477-28.157 27.123-53.865 60.287-53.865h142.473c33.162 0 50.804 25.708 60.283 53.865 65.641 4.454 117.803 62.631 117.803 133.725zM617.705 351.017c-0.060-29.069-8.838-89.044-35.615-89.044h-142.473c-26.782 0-35.563 59.975-35.622 89.044h213.71z" fill="#ffffff"></path></g></g></svg>