<?xml version="1.0" standalone="no"?><!DOCTYPE svg PUBLIC "-//W3C//DTD SVG 1.1//EN" "http://www.w3.org/Graphics/SVG/1.1/DTD/svg11.dtd"><svg width="64" height="64" viewBox="0 0 64 64" version="1.1" xmlns="http://www.w3.org/2000/svg" xmlns:xlink="http://www.w3.org/1999/xlink"><defs><style type="text/css"><![CDATA[
@font-face { font-family: ifont; src: url(http://at.alicdn.com/t/font_1442373896_4754455.eot?#iefix) format(embedded-opentype), url(http://at.alicdn.com/t/font_1442373896_4754455.woff) format(woff), url(http://at.alicdn.com/t/font_1442373896_4754455.ttf) format(truetype), url(http://at.alicdn.com/t/font_1442373896_4754455.svg#ifont) format(svg); }

]]></style></defs><g class="transform-group"><g transform="scale(0.0625, 0.0625)"><path d="M742.078 769.339h-452.084c-21.378 0-38.771-17.42-38.771-38.771v-261.219c0-21.378 17.394-38.771 38.771-38.771h17.733l181.672-125.142c-1.249-3.828-2.369-7.706-2.369-11.744 0-10.13 4.166-20.232 11.353-27.393 7.187-7.187 17.264-11.378 27.419-11.378 10.155 0 20.232 4.192 27.419 11.378 7.162 7.162 11.353 17.263 11.353 27.393 0 4.922-1.068 9.791-2.89 14.348l158.784 122.539h13.489c21.352 0 38.771 17.394 38.771 38.771v261.219c0 21.351-9.27 38.771-30.648 38.771zM540.851 329.338c-4.74 2.004-9.868 3.124-15.050 3.124-6.222 0-12.134-1.979-17.629-4.843l-152.691 102.957h320.484l-135.114-101.238zM746.972 456.33h-468.383v286.426h468.383v-286.426zM382.692 557.594c7.629 0 15.181 3.124 20.571 8.514 5.391 5.363 8.514 12.941 8.514 20.545 0 7.63-3.124 15.181-8.514 20.571-5.391 5.391-12.941 8.514-20.571 8.514-7.603 0-15.181-3.124-20.545-8.514-5.391-5.391-8.514-12.941-8.514-20.571 0-7.603 3.124-15.18 8.514-20.545 5.363-5.391 12.941-8.514 20.545-8.514zM512.886 557.594c7.629 0 15.18 3.124 20.571 8.514 5.391 5.363 8.514 12.941 8.514 20.545 0 7.63-3.124 15.181-8.514 20.571-5.391 5.391-12.941 8.514-20.571 8.514-7.603 0-15.181-3.124-20.545-8.514-5.391-5.391-8.514-12.941-8.514-20.571 0-7.603 3.124-15.18 8.514-20.545 5.363-5.391 12.941-8.514 20.545-8.514zM642.037 557.594c7.603 0 15.181 3.124 20.571 8.514 5.391 5.363 8.514 12.941 8.514 20.545 0 7.63-3.124 15.181-8.514 20.571-5.391 5.391-12.967 8.514-20.571 8.514-7.603 0-15.181-3.124-20.571-8.514-5.363-5.391-8.514-12.941-8.514-20.571 0-7.603 3.151-15.18 8.514-20.545 5.391-5.391 12.967-8.514 20.571-8.514z" fill="#fff"></path></g></g></svg>