<?xml version="1.0" standalone="no"?><!DOCTYPE svg PUBLIC "-//W3C//DTD SVG 1.1//EN" "http://www.w3.org/Graphics/SVG/1.1/DTD/svg11.dtd"><svg width="64" height="64" viewBox="0 0 64 64" version="1.1" xmlns="http://www.w3.org/2000/svg" xmlns:xlink="http://www.w3.org/1999/xlink"><defs><style type="text/css"><![CDATA[
@font-face { font-family: ifont; src: url(http://at.alicdn.com/t/font_1442373896_4754455.eot?#iefix) format(embedded-opentype), url(http://at.alicdn.com/t/font_1442373896_4754455.woff) format(woff), url(http://at.alicdn.com/t/font_1442373896_4754455.ttf) format(truetype), url(http://at.alicdn.com/t/font_1442373896_4754455.svg#ifont) format(svg); }

]]></style></defs><g class="transform-group"><g transform="scale(0.0625, 0.0625)"><path d="M336.224 546.336l24.256 23.928 75.391-78.013 110.465 104.892 123.577-142.261-26.223-22.617-99.319 115.38-110.136-103.909zM511.975 260.259c-138.814 0-251.715 112.901-251.715 251.715s112.952 251.766 251.715 251.766 251.766-112.901 251.766-251.766-112.901-251.715-251.766-251.715zM511.975 736.724c-123.921 0-224.749-100.825-224.749-224.749s100.825-224.697 224.749-224.697 224.749 100.778 224.749 224.697-100.778 224.749-224.749 224.749z" fill="#fff"></path></g></g></svg>