<?xml version="1.0" standalone="no"?><!DOCTYPE svg PUBLIC "-//W3C//DTD SVG 1.1//EN" "http://www.w3.org/Graphics/SVG/1.1/DTD/svg11.dtd"><svg width="32" height="32" viewBox="0 0 32 32" version="1.1" xmlns="http://www.w3.org/2000/svg" xmlns:xlink="http://www.w3.org/1999/xlink"><defs><style type="text/css"><![CDATA[
@font-face { font-family: ifont; src: url(http://at.alicdn.com/t/font_1442373896_4754455.eot?#iefix) format(embedded-opentype), url(http://at.alicdn.com/t/font_1442373896_4754455.woff) format(woff), url(http://at.alicdn.com/t/font_1442373896_4754455.ttf) format(truetype), url(http://at.alicdn.com/t/font_1442373896_4754455.svg#ifont) format(svg); }

]]></style></defs><g class="transform-group"><g transform="scale(0.03125, 0.03125)"><path d="M711.223 782.759h-391.524c-33.845 0-61.536-27.692-61.536-61.536v-409.985c0-33.845 27.692-61.536 61.536-61.536h391.524c33.845 0 61.536 27.692 61.536 61.536v409.985c0 33.845-27.692 61.536-61.536 61.536zM319.699 280.47c-16.923 0-30.768 13.845-30.768 30.768v409.985c0 16.923 13.845 30.768 30.768 30.768h391.524c16.923 0 30.768-13.845 30.768-30.768v-409.985c0-16.923-13.845-30.768-30.768-30.768h-391.524zM522.769 388.159h168.455v23.076h-168.455v-23.076zM411.234 678.147c-36.153 0-65.382-29.23-65.382-65.382s29.23-65.382 65.382-65.382 65.382 29.23 65.382 65.382-29.23 65.382-65.382 65.382zM411.234 570.46c-23.076 0-42.306 19.23-42.306 42.306s19.23 42.306 42.306 42.306 42.306-19.23 42.306-42.306-19.23-42.306-42.306-42.306zM522.769 578.921h168.455v23.076h-168.455v-23.076zM522.769 434.31h145.379v23.076h-145.379v-23.076zM522.769 625.073h121.534v23.076h-121.534v-23.076zM361.179 396.935l57.653 57.653-16.317 16.317-57.653-57.653 16.317-16.317zM493.366 351.014l16.317 16.317-103.886 103.886-16.317-16.317 103.886-103.886z" fill="#ffffff"></path></g></g></svg>