<?xml version="1.0" standalone="no"?><!DOCTYPE svg PUBLIC "-//W3C//DTD SVG 1.1//EN" "http://www.w3.org/Graphics/SVG/1.1/DTD/svg11.dtd"><svg t="1492411750190" class="icon" style="" viewBox="0 0 1025 1024" version="1.1" xmlns="http://www.w3.org/2000/svg" p-id="9194" xmlns:xlink="http://www.w3.org/1999/xlink" width="32.03125" height="32"><defs><style type="text/css"></style></defs><path d="M1023.99701 54.235616l-189.629134 0 0 189.647122-151.703627 0 0 170.66588-170.664881 0 0 170.657886-170.66588 0 0 170.686068-170.667879 0 0 170.665681L-0.000272 926.558252l0 37.897325 208.593386 0 0-170.637898L379.258795 793.817679l0-170.686068 170.66588 0L549.924675 452.464132l170.66588 0 0-170.639697 151.704626 0L872.295182 92.177112l151.701628 0L1023.99681 54.235616zM739.55181 604.18095l68.009954 0L669.258095 742.477423l26.814107 26.833295 138.295674-138.311664 0 68.005956 37.927506 0L872.295382 566.262439l-132.742372 0L739.55181 604.18095z" p-id="9195" fill="#ffffff"></path></svg>