<?xml version="1.0" standalone="no"?><!DOCTYPE svg PUBLIC "-//W3C//DTD SVG 1.1//EN" "http://www.w3.org/Graphics/SVG/1.1/DTD/svg11.dtd"><svg width="32" height="32" viewBox="0 0 32 32" version="1.1" xmlns="http://www.w3.org/2000/svg" xmlns:xlink="http://www.w3.org/1999/xlink"><defs><style type="text/css"><![CDATA[
@font-face { font-family: ifont; src: url(http://at.alicdn.com/t/font_1442373896_4754455.eot?#iefix) format(embedded-opentype), url(http://at.alicdn.com/t/font_1442373896_4754455.woff) format(woff), url(http://at.alicdn.com/t/font_1442373896_4754455.ttf) format(truetype), url(http://at.alicdn.com/t/font_1442373896_4754455.svg#ifont) format(svg); }

]]></style></defs><g class="transform-group"><g transform="scale(0.03125, 0.03125)"><path d="M589.539 280.003c9.527 2.071 17.396 7.147 23.605 15.22 6.211 8.074 9.73 18.115 10.557 30.127 0 3.727 0.209 9.523 0.622 17.389 0.415 7.867 0.622 16.149 0.622 24.846 0 8.697-0.309 16.566-0.932 23.605-0.622 7.039-1.76 11.383-3.418 13.042-2.484 2.901-4.864 4.247-7.143 4.041-2.277-0.21-3.415 0.931-3.415 3.415 0 1.244-0.311 5.588-0.932 13.045-0.622 7.449-2.38 17.805-5.28 31.057-1.655 7.039-4.037 13.354-7.143 18.942-3.106 5.59-6.314 10.665-9.63 15.22-4.141 4.967-8.281 9.522-12.425 13.663-0.413 5.383-0.622 10.561-0.622 15.53v13.044c0 4.555 0.209 8.077 0.622 10.562 0.415 4.969 1.657 8.487 3.727 10.558 2.073 2.071 6.212 3.935 12.425 5.591 2.071 0.829 5.799 2.069 11.18 3.724 5.382 1.66 11.804 3.833 19.255 6.524 7.456 2.689 15.221 5.485 23.294 8.386 8.078 2.895 15.842 5.691 23.294 8.382 7.455 2.693 14.079 5.177 19.879 7.456 5.796 2.277 10.145 4.037 13.045 5.28 8.279 4.14 13.766 8.487 16.46 13.044 2.691 4.551 5.070 10.352 7.143 17.389 0.829 3.727 1.969 10.562 3.414 20.496 1.451 9.939 3.002 20.293 4.659 31.057 1.658 10.767 3.002 20.911 4.041 30.437 1.034 9.523 1.76 15.529 2.172 18.012 0.414 5.383-0.516 9.939-2.794 13.663-2.276 3.727-7.559 6.628-15.841 8.698-7.041 1.655-17.289 3.414-30.747 5.278-13.458 1.865-29.092 3.623-46.899 5.28-17.804 1.655-37.373 3.002-58.699 4.035-21.328 1.037-43.794 1.553-67.396 1.553-23.603 0-46.172-0.413-67.705-1.239-21.535-0.827-41.308-1.97-59.323-3.417-18.013-1.447-33.953-3.105-47.826-4.967-13.874-1.863-24.743-3.833-32.611-5.903-1.657-0.413-3.727-1.241-6.211-2.484-2.484-1.239-4.865-2.794-7.143-4.659-2.276-1.863-4.039-4.141-5.28-6.834-1.245-2.689-1.657-5.693-1.245-9.005 0.415-2.899 1.553-9.42 3.417-19.566 1.863-10.147 4.038-21.015 6.521-32.61 2.484-11.595 4.763-22.464 6.834-32.609 2.071-10.147 3.518-16.462 4.342-18.948 1.659-4.967 4.041-10.145 7.146-15.529 3.105-5.383 8.384-10.974 15.839-16.769 3.728-2.899 10.561-6.006 20.497-9.316 9.939-3.316 20.295-6.42 31.058-9.317 10.769-2.899 20.914-5.383 30.439-7.456 9.525-2.071 15.737-3.521 18.636-4.351 6.211-1.241 11.7-2.793 16.462-4.659 4.762-1.861 7.143-4.448 7.143-7.764v-36.025c-4.555-3.727-8.902-7.867-13.044-12.423-3.728-3.727-7.453-8.18-11.18-13.354-3.728-5.177-7.041-10.667-9.938-16.46-5.796-11.183-9.525-21.431-11.181-30.747-1.654-9.316-2.693-14.801-3.105-16.46-0.414-1.657-1.97-3.003-4.659-4.037-2.693-1.037-4.659-3.212-5.901-6.523-3.313-7.039-4.865-14.492-4.659-22.362 0.204-7.867 0.726-19.047 1.553-33.54 1.244-14.492 3.623-28.364 7.143-41.614 3.52-13.253 11.285-25.467 23.294-36.652 6.211-5.382 14.495-9.833 24.848-13.354 10.355-3.518 20.914-6.11 31.68-7.764 10.768-1.657 21.015-2.484 30.747-2.484 9.731 0 17.082 0.622 22.051 1.862 5.383 1.659 9.732 3.418 13.045 5.28 3.312 1.866 5.9 3.623 7.764 5.28 1.863 1.655 3.415 3.21 4.659 4.659 1.241 1.451 2.484 2.588 3.727 3.415 2.069 1.658 4.762 2.174 8.075 1.553 3.311-0.617 9.11-0.101 17.389 1.553v0zM532.395 620.389l16.769 64.597 27.335-73.294-26.090-18.635-18.013 27.328zM487.67 591.817l-24.848 19.878 27.952 73.294 14.906-65.219-18.013-27.951zM708.803 348.953c5.801 0.829 10.458 3.727 13.975 8.694 3.521 4.972 5.486 10.976 5.902 18.016 0 2.069 0.206 5.486 0.62 10.25 0.414 4.762 0.622 9.625 0.622 14.598 0 4.967-0.206 9.625-0.622 13.975-0.413 4.342-1.034 6.937-1.863 7.764-1.657 1.655-3.209 2.38-4.659 2.171-1.451-0.204-2.173 0.518-2.173 2.174 0 0.829-0.103 3.418-0.31 7.764-0.204 4.351-1.345 10.665-3.415 18.948-0.829 4.141-2.069 7.867-3.725 11.179-1.657 3.313-3.521 6.211-5.593 8.697-2.069 2.901-4.553 5.59-7.452 8.077-0.415 3.311-0.624 6.417-0.624 9.317v14.284c0.415 2.9 1.245 4.967 2.484 6.211 1.244 1.244 3.728 2.277 7.455 3.105 1.657 0.415 5.59 1.655 11.801 3.727 6.212 2.069 12.942 4.451 20.189 7.143 7.247 2.69 13.975 5.177 20.188 7.456 6.212 2.276 10.562 4.035 13.045 5.278 4.97 2.486 8.387 5.074 10.25 7.764 1.863 2.693 3.211 6.318 4.038 10.87 0.414 2.071 1.037 6.005 1.865 11.804 0.829 5.795 1.655 12.009 2.482 18.633 0.829 6.624 1.657 12.63 2.484 18.013 0.829 5.383 1.244 8.903 1.244 10.557 0.414 3.315-0.103 6.11-1.553 8.387-1.451 2.276-4.659 3.83-9.63 4.657-4.14 0.829-9.524 1.866-16.15 3.107-6.624 1.243-15.321 2.276-26.087 3.105-0.829-4.967-2.071-9.729-3.728-14.285-1.244-4.143-2.689-8.489-4.351-13.044-1.655-4.555-3.724-8.487-6.211-11.801-4.553-6.211-9.317-11.183-14.285-14.906-4.967-3.727-9.939-6.832-14.907-9.316-4.972-2.486-9.939-4.452-14.907-5.901-4.971-1.451-9.939-3.003-14.91-4.659-21.119-7.456-38.098-12.63-50.934-15.53-12.838-2.899-20.085-5.383-21.741-7.456-0.829-1.241-1.346-2.691-1.553-4.346-0.204-1.655-0.311-3.52-0.311-5.588 0-2.073 0.209-4.351 0.622-6.834 5.799-1.655 10.147-2.693 13.045-3.105 2.899-0.415 5.177-0.829 6.832-1.244 3.312-0.829 6.419-1.76 9.317-2.794 2.9-1.037 4.346-2.59 4.346-4.658v-21.74l-3.724-1.867c-0.829-0.413-1.657-1.451-2.486-3.105 2.486-5.382 4.971-11.801 7.456-19.257 2.071-6.623 4.247-14.7 6.521-24.223 2.277-9.524 4.247-20.911 5.903-34.162 1.244-10.352 2.071-19.67 2.484-27.951 0.415-8.279 0.622-15.53 0.622-21.74v-19.255c4.967-0.829 10.25-1.239 15.839-1.239 5.593 0 10.042 0.413 13.356 1.239 7.041 2.073 11.282 4.143 12.734 6.211 1.45 2.071 3.002 3.727 4.659 4.972 1.655 0.829 3.414 1.138 5.28 0.931 1.865-0.207 5.281 0.103 10.25 0.931v0zM677.124 547.716l4.351 16.772 11.18 3.727 8.694-22.361-13.043-11.183-11.183 13.044zM644.827 536.537l-10.562 10.557 0.622 2.486 19.255 5.59 2.484-6.834-11.801-11.799zM369.028 335.289c-6.623-0.827-13.251-1.036-19.875-0.622-5.799 0.413-12.114 1.451-18.949 3.106-6.83 1.655-13.145 4.554-18.944 8.694-4.967 3.312-8.903 7.247-11.801 11.801-2.901 4.555-5.075 9.215-6.524 13.975-1.447 4.762-2.38 9.215-2.793 13.354-0.415 4.143-0.622 7.456-0.622 9.939-0.413 5.383-0.829 10.25-1.245 14.598-0.413 4.351-0.204 8.18 0.624 11.492 0.827 3.311 1.45 5.59 1.865 6.833 0.414 1.239 1.241 2.277 2.485 3.105 1.239 0.829 2.277 1.343 3.105 1.553 0.827 0.204 1.655 2.999 2.484 8.382 0.415 5.383 1.761 10.665 4.038 15.842 2.277 5.174 4.659 9.42 7.143 12.732 1.244 2.073 2.798 4.035 4.659 5.902 1.866 1.862 3.623 3.83 5.281 5.899 1.655 2.071 3.727 4.144 6.212 6.21v18.017c-0.413 2.484-1.343 4.553-2.794 6.21-1.45 1.655-4.246 2.897-8.387 3.724-2.071 0.415-5.488 1.244-10.247 2.486-4.762 1.241-9.938 2.588-15.53 4.037-5.593 1.45-11.183 3.002-16.773 4.659-5.588 1.655-10.042 3.105-13.354 4.345-12.011 5.801-19.255 15.739-21.741 29.817-1.657 6.624-3.521 14.906-5.59 24.846-2.070 9.938-3.521 16.977-4.35 21.116s-0.724 8.487 0.309 13.044c1.037 4.555 4.454 7.452 10.251 8.694 2.897 0.827 6.521 1.451 10.87 1.863 4.346 0.415 8.592 1.036 12.733 1.865 4.555 0.829 9.317 1.451 14.284 1.863 0.832-4.969 2.071-9.939 3.727-14.907 1.244-4.555 3.002-9.111 5.28-13.664 2.277-4.553 5.074-8.903 8.387-13.043 3.311-3.727 7.349-7.351 12.11-10.87 4.764-3.521 9.424-6.937 13.975-10.252 4.972-3.724 10.355-7.246 16.151-10.557l-6.212-15.529 13.667-10.561 14.284 16.15 7.456-1.863c0.827 0 2.071-0.415 3.727-1.244 0.829-0.415 1.655-0.621 2.484-0.621l11.801-13.664 10.561 8.694c2.070-0.414 3.936-0.827 5.59-1.244 1.655-0.413 3.517-0.827 5.59-1.239l6.212-1.244c4.555-0.827 8.386-1.655 11.492-2.484s4.864-2.899 5.28-6.211c0-1.655 0.103-3.002 0.31-4.037 0.204-1.036 0.309-1.968 0.309-2.797v-1.863c-3.725-1.244-7.247-2.486-10.557-3.727l-8.694-2.484c-2.898-0.829-5.177-1.658-6.832-2.486-3.312-1.239-5.178-3.001-5.59-5.277-0.415-2.279-0.622-5.28-0.622-9.008v-6.21c0-2.071 0.204-4.141 0.622-6.211 0-2.073 0.206-4.555 0.619-7.457-3.311-4.967-6.623-10.352-9.936-16.147-2.899-4.972-5.695-10.665-8.387-17.081-2.694-6.421-4.865-13.148-6.525-20.187-2.068-9.527-3.518-19.671-4.345-30.439-0.829-10.763-1.034-20.496-0.622-29.191 0.003-10.356 0.624-20.501 1.863-30.436v0zM369.028 335.289z" fill="#fff"></path></g></g></svg>