<?xml version="1.0" standalone="no"?><!DOCTYPE svg PUBLIC "-//W3C//DTD SVG 1.1//EN" "http://www.w3.org/Graphics/SVG/1.1/DTD/svg11.dtd"><svg width="32" height="32" viewBox="0 0 32 32" version="1.1" xmlns="http://www.w3.org/2000/svg" xmlns:xlink="http://www.w3.org/1999/xlink"><defs><style type="text/css"><![CDATA[
@font-face { font-family: ifont; src: url(http://at.alicdn.com/t/font_1442373896_4754455.eot?#iefix) format(embedded-opentype), url(http://at.alicdn.com/t/font_1442373896_4754455.woff) format(woff), url(http://at.alicdn.com/t/font_1442373896_4754455.ttf) format(truetype), url(http://at.alicdn.com/t/font_1442373896_4754455.svg#ifont) format(svg); }

]]></style></defs><g class="transform-group"><g transform="scale(0.03125, 0.03125)"><path d="M703.645 539.774c-13.887 94.434-94.434 166.647-191.645 166.647-108.322 0-194.422-86.101-194.422-194.422s86.101-194.422 194.422-194.422c8.332 0 19.442 0 27.774 2.777v-55.549c-8.333-2.777-19.442-2.777-27.774-2.777-138.874 0-249.971 111.099-249.971 249.971s111.099 249.971 249.971 249.971 249.971-111.099 249.971-249.971c0-8.332 0-19.442-2.777-27.774h-108.322v55.549h52.771zM512 484.226v55.55c-61.104 0-111.099-36.107-111.099-83.324s49.995-83.324 111.099-83.324 111.099 36.107 111.099 83.324h-55.549c0-16.666-24.997-27.774-55.549-27.774v55.549zM512 595.324c-30.552 0-55.55-11.108-55.55-27.774h-55.55c0 47.216 49.995 83.324 111.099 83.324s111.099-36.107 111.099-83.324-49.995-83.324-111.099-83.324v111.099z" fill="#ffffff"></path></g></g></svg>