<?xml version="1.0" standalone="no"?><!DOCTYPE svg PUBLIC "-//W3C//DTD SVG 1.1//EN" "http://www.w3.org/Graphics/SVG/1.1/DTD/svg11.dtd"><svg width="32" height="32" viewBox="0 0 32 32" version="1.1" xmlns="http://www.w3.org/2000/svg" xmlns:xlink="http://www.w3.org/1999/xlink"><defs><style type="text/css"><![CDATA[
@font-face { font-family: ifont; src: url(http://at.alicdn.com/t/font_1442373896_4754455.eot?#iefix) format(embedded-opentype), url(http://at.alicdn.com/t/font_1442373896_4754455.woff) format(woff), url(http://at.alicdn.com/t/font_1442373896_4754455.ttf) format(truetype), url(http://at.alicdn.com/t/font_1442373896_4754455.svg#ifont) format(svg); }

]]></style></defs><g class="transform-group"><g transform="scale(0.03125, 0.03125)"><path d="M726.724 440.394c0-79.101-64.183-143.213-143.355-143.213s-143.333 64.112-143.333 143.213c0 47.427 23.177 89.341 58.718 115.405-63.063 31.198-106.503 95.953-106.503 171.022h47.785c0-78.983 64.303-143.213 143.355-143.213 79.148 0 143.332-64.112 143.332-143.212zM487.82 440.394c0-52.656 42.869-95.475 95.571-95.475s95.572 42.82 95.572 95.475c0 52.656-42.869 95.475-95.571 95.475-52.702 0-95.571-42.82-95.571-95.475zM690.418 568.617c-14.179 11.839-30.385 21.219-47.953 27.879 35.231 16.015 62.608 45.923 75.687 82.586-51.628 0-209.831 0-212.839 0-20.313 10.933-17.519 47.738-17.519 47.738h286.688c0.025-65.831-33.321-123.879-84.066-158.202zM412.324 576.421c-1.695-6.206-2.649-13.009-2.649-20.167 0-8.57 1.481-16.518 3.866-23.632-44.085-3.055-79.148-39.479-79.148-84.279 0-46.809 38.118-84.878 84.949-84.878 0.477 0 0.932 0.143 1.408 0.143 6.849-14.322 15.443-27.617 25.684-39.551-8.736-1.885-17.783-3.007-27.091-3.007-70.365 0-127.435 56.999-127.435 127.293 0 42.151 20.598 79.412 52.201 102.588-56.045 27.737-94.663 85.307-94.663 152.020h98.506c0-19.286 5.252-36.329 13.343-47.738h-60.006c18.14-44.302 60.793-75.998 111.037-78.79z" fill="#ffffff"></path></g></g></svg>