<?xml version="1.0" standalone="no"?><!DOCTYPE svg PUBLIC "-//W3C//DTD SVG 1.1//EN" "http://www.w3.org/Graphics/SVG/1.1/DTD/svg11.dtd"><svg t="1484189903841" class="icon" style="" viewBox="0 0 1024 1024" version="1.1" xmlns="http://www.w3.org/2000/svg" p-id="10362" xmlns:xlink="http://www.w3.org/1999/xlink" width="32" height="32"><defs><style type="text/css"></style></defs><path d="M737.636 426.467c-10.605-17.817-28.278-35.638-49.49-57.020-17.673-17.821-38.884-35.638-56.557-49.894-28.28-21.384-42.42-24.947-49.488-24.947h-205.028c-24.744 0-45.953 21.382-45.953 46.329v409.842c0 24.947 21.208 46.328 45.953 46.328h335.818c24.743 0 45.955-21.383 45.955-46.328v-274.417c3.536-7.125 0-21.382-21.211-49.893zM666.938 394.393c17.676 17.817 31.816 32.073 38.885 46.329h-84.837v-85.53c14.14 10.691 28.277 21.382 45.953 39.202zM727.032 750.777c0 3.565-3.532 10.69-10.606 10.69h-335.818c-3.536 0-10.605-3.565-10.605-10.69v-409.842c0-3.565 3.532-10.691 10.605-10.691h205.028v124.734c0 10.69 7.068 17.82 17.673 17.82h123.722v277.979zM564.425 251.839c-28.281-21.382-42.417-24.947-49.489-24.947h-205.028c-24.744 0-45.953 21.382-45.953 46.329v409.84c0 21.382 14.14 39.203 35.348 42.769v-452.608c0-3.563 3.536-10.692 10.606-10.692h268.657c-3.536-3.565-7.069-7.126-14.139-10.69z" p-id="10363" fill="#ffffff"></path><path d="M643.698 599.056c-35.914 0-65.133 29.212-65.133 65.133s29.22 65.133 65.133 65.133c35.921 0 65.133-29.213 65.133-65.133s-29.221-65.133-65.133-65.133zM643.698 714.848c-27.934 0-50.658-22.739-50.658-50.665 0-27.934 22.723-50.658 50.658-50.658 27.926 0 50.665 22.732 50.665 50.658s-22.74 50.665-50.665 50.665zM655.291 649.591l-11.595-33.339-11.594 33.339-35.293 0.716 28.129 21.323-10.217 33.796 28.976-20.167 28.976 20.176-10.217-33.797 28.12-21.323-35.286-0.725zM548.608 457.006h-147.77c-8.993 0-16.283-7.291-16.283-16.284s7.291-16.283 16.283-16.283h147.77c8.993 0 16.283 7.291 16.283 16.283 0 8.993-7.291 16.283-16.283 16.283zM584.516 520.945h-183.676c-8.993 0-16.283-7.291-16.283-16.283s7.291-16.283 16.283-16.283h183.676c8.993 0 16.284 7.291 16.284 16.283 0 8.993-7.291 16.283-16.284 16.283zM617.733 584.882h-216.893c-8.992 0-16.284-7.291-16.284-16.284s7.291-16.283 16.283-16.283h216.893c8.993 0 16.284 7.29 16.284 16.283s-7.291 16.284-16.283 16.284zM548.608 648.82h-147.77c-8.993 0-16.283-7.291-16.283-16.283s7.291-16.283 16.283-16.283h147.77c8.993 0 16.283 7.291 16.283 16.283s-7.291 16.283-16.283 16.283z" p-id="10364" fill="#ffffff"></path></svg>