<?xml version="1.0" standalone="no"?><!DOCTYPE svg PUBLIC "-//W3C//DTD SVG 1.1//EN" "http://www.w3.org/Graphics/SVG/1.1/DTD/svg11.dtd"><svg t="1492411538742" class="icon" style="" viewBox="0 0 1024 1024" version="1.1" xmlns="http://www.w3.org/2000/svg" p-id="6704" xmlns:xlink="http://www.w3.org/1999/xlink" width="32" height="32"><defs><style type="text/css"></style></defs><path d="M575.726394 244.954945c0 18.869766-15.287171 34.156938-34.156938 34.156938L313.650513 279.111882c-18.869766 0-34.156938-15.287171-34.156938-34.156938l0 0c0-18.892279 15.287171-34.17945 34.156938-34.17945l227.898477 0C560.417733 210.775494 575.726394 226.062666 575.726394 244.954945L575.726394 244.954945 575.726394 244.954945z" p-id="6705" fill="#ffffff"></path><path d="M927.564647 234.056734c-29.483498-26.447349-79.452563-70.498634-94.696756-85.764316-8.604982-8.56098-28.326139-13.606903-41.452087 0.195451-12.515035 13.147438-7.076162 30.401404 2.183735 39.22435 12.033058 11.422144 37.564547 32.956599 54.81749 50.733475-0.174985 0.044002-0.284479 0.197498-0.459464 0.26299 1.310855 1.309832 2.118244 3.100618 2.118244 5.087878 0 1.987261-0.807389 3.778046-2.118244 5.066389 0.153496 0.044002 0.240477 0.197498 0.39295 0.217964-14.152325 15.702634-33.828456 31.777751-46.867424 46.14804-0.130983 0.130983-0.10847 0.283456-0.217964 0.414439-3.603061 3.037173-6.027274 7.426133-6.027274 12.515035 0 9.128915 7.40362 16.554024 16.532535 16.554024 0.459464 0 0.895393-0.239454 1.353834-0.283456l0.153496 0.196475 65.977667 0c4.979408 0 6.202259 4.935406 6.202259 4.935406l0 473.463312c0 26.425859-14.370289 34.747385-29.090549 34.747385-14.741749 0-30.466895-8.407484-30.466895-34.747385l0-387.06557c0-35.118845-3.842515-50.973952-43.460838-53.113685-9.740852-0.481977-48.680722-0.130983-69.822229 0L712.617134 116.078739c0-32.562627-26.360368-58.924018-58.924018-58.924018l-454.921004 0c-32.541137 0-58.922994 26.361391-58.922994 58.924018L139.849118 898.486378l-33.633005 0c-13.453407 0-24.242124 10.854209-24.242124 24.220634l0 18.71627c0 13.387915 10.788717 25.420973 24.242124 25.420973l639.095653 0c13.409404 0 24.220634-12.034081 24.220634-25.420973l0-18.71627c0-13.365402-10.81123-24.220634-24.220634-24.220634l-32.716122 0L712.595644 419.7162c11.923564 0.021489 28.632107 0 40.622186 0 14.45727 0 15.702634 14.370289 15.702634 14.370289L768.920464 806.716278c0 95.112218 78.688153 96.030124 87.424118 96.030124 11.728112 0 85.677335 0 85.677335-94.871741 0-17.711384 0-547.500539 0-547.500539S942.525384 247.51014 927.564647 234.056734L927.564647 234.056734zM644.325771 859.677491c0 21.665439-17.646915 39.289841-39.289841 39.289841L248.022817 898.967332c-21.665439 0-39.22435-17.624403-39.22435-39.289841L208.798467 164.80244c0-21.686928 17.558911-39.289841 39.22435-39.289841l357.034603 0c21.643949 0 39.289841 17.602913 39.289841 39.289841l0 694.875051L644.325771 859.677491 644.325771 859.677491z" p-id="6706" fill="#ffffff"></path></svg>