<?xml version="1.0" standalone="no"?><!DOCTYPE svg PUBLIC "-//W3C//DTD SVG 1.1//EN" "http://www.w3.org/Graphics/SVG/1.1/DTD/svg11.dtd"><svg t="1492410920714" class="icon" style="" viewBox="0 0 1024 1024" version="1.1" xmlns="http://www.w3.org/2000/svg" p-id="2769" xmlns:xlink="http://www.w3.org/1999/xlink" width="32" height="32"><defs><style type="text/css"></style></defs><path d="M708.866897 149.225113 572.457545 149.225113l49.885087-91.34762c5.649125-10.571694 1.604223-23.722968-8.924732-29.382777-10.59459-5.617071-23.756548-1.607276-29.404147 8.98884l-28.784437 52.646305 14.381534-63.401165c2.590264-11.672213-4.750088-23.336794-16.478777-25.872108-11.70732-2.62537-23.306266 4.791301-25.895003 16.509305l-18.470701 81.279631-16.411617-81.224681c-2.353675-11.772954-13.781667-19.377369-25.510356-17.003851-11.768375 2.344517-19.409423 13.731297-17.100013 25.446248L461.044159 81.79431 441.549258 37.652984c-4.710403-10.986869-17.463291-16.155185-28.483741-11.330304-11.064714 4.719561-16.113973 17.431237-11.342515 28.474582l41.601434 94.429378-128.145542 0L315.178894 529.271876 708.866897 529.271876 708.866897 149.225113 708.866897 149.225113zM409.125936 766.791563 219.453621 433.381754c-6.848858-12.004963-22.150798-16.243715-34.178657-9.396383l-32.056992 18.191373c-12.049228 6.80612-16.243715 22.257645-9.39333 34.218343L308.609363 766.054322l-17.057275 0L116.151408 515.590949l0-364.294542c0-13.845775-11.234142-25.101287-25.101287-25.101287l-36.851345 0c-13.868671 0-25.10434 11.257038-25.10434 25.101287L29.094437 531.22564c0 2.312463 0.384647 4.431075 0.963145 6.549688 0.341909 4.301333 1.370687 8.645405 4.044902 12.432349l180.216403 257.374813 0 191.354383c0 13.886987 11.234142 25.061601 25.101287 25.061601l164.035269 0c13.870197 0 25.127235-11.173087 25.127235-25.061601L428.582677 791.147977C428.58115 779.300231 420.253232 769.326877 409.125936 766.791563L409.125936 766.791563zM969.847015 126.195121l-36.834555 0c-13.864092 0-25.099761 11.257038-25.099761 25.101287L907.912699 515.590949 732.510493 766.139799l-17.075591 0L880.218096 476.393561c6.829015-11.960698 2.59179-27.305377-9.416226-34.142024L838.767774 423.983845c-12.029385-6.845806-27.352694-2.60858-34.180183 9.396383L614.892381 766.791563c-11.127296 2.62537-19.450635 12.508668-19.450635 24.356414l0 207.788895c0 13.886987 11.234142 25.061601 25.10434 25.061601l164.076481 0c13.870197 0 25.10434-11.173087 25.10434-25.061601L809.726906 807.580963 989.943308 550.207677c2.652845-3.78847 3.678571-8.132542 3.99911-12.433876 0.576971-2.118613 0.963145-4.237225 0.963145-6.549688l0-379.927705C994.904037 137.452159 983.712633 126.195121 969.847015 126.195121L969.847015 126.195121z" p-id="2770" fill="#ffffff"></path></svg>