<?xml version="1.0" standalone="no"?><!DOCTYPE svg PUBLIC "-//W3C//DTD SVG 1.1//EN" "http://www.w3.org/Graphics/SVG/1.1/DTD/svg11.dtd"><svg t="1492411695196" class="icon" style="" viewBox="0 0 1037 1024" version="1.1" xmlns="http://www.w3.org/2000/svg" p-id="8465" xmlns:xlink="http://www.w3.org/1999/xlink" width="32.40625" height="32"><defs><style type="text/css"></style></defs><path d="M604.810802 330.031599c0-17.605983-14.246469-31.853475-31.853475-31.853475L190.718693 298.178123c-17.605983 0-31.853475 14.246469-31.853475 31.853475s14.246469 31.853475 31.853475 31.853475l382.239658 0C590.564333 361.885074 604.810802 347.637582 604.810802 330.031599z" p-id="8466" fill="#ffffff"></path><path d="M477.397924 521.151427c0-17.605983-14.246469-31.853475-31.853475-31.853475L190.718693 489.297952c-17.605983 0-31.853475 14.246469-31.853475 31.853475s14.246469 31.853475 31.853475 31.853475l254.825756 0C463.151455 553.004903 477.397924 538.75741 477.397924 521.151427z" p-id="8467" fill="#ffffff"></path><path d="M190.718693 680.417781c-17.605983 0-31.853475 14.246469-31.853475 31.853475 0 17.605983 14.246469 31.853475 31.853475 31.853475l191.119829 0c17.605983 0 31.853475-14.246469 31.853475-31.853475 0-17.605983-14.246469-31.853475-31.853475-31.853475L190.718693 680.417781z" p-id="8468" fill="#ffffff"></path><path d="M798.481733 808.495808c-17.605983 0-31.853475 14.246469-31.853475 31.853475 0 30.609135-26.067702 55.556317-58.044997 55.556317L123.963313 895.9056c-32.039717 0-58.107419-24.947182-58.107419-55.556317L65.855894 186.983625c0-30.609135 26.067702-55.556317 58.107419-55.556317l584.619948 0c31.977295 0 58.044997 24.947182 58.044997 55.556317l0 75.838246c0 17.605983 14.246469 31.853475 31.853475 31.853475 17.605983 0 31.853475-14.246469 31.853475-31.853475l0-75.838246c0-65.759703-54.623062-119.263268-121.751948-119.263268L123.963313 67.720358c-67.190285 0-121.813347 53.503565-121.813347 119.263268l0 653.365658c0 65.759703 54.623062 119.263268 121.813347 119.263268l584.619948 0c67.127863 0 121.751948-53.503565 121.751948-119.263268C830.335209 822.742277 816.087717 808.495808 798.481733 808.495808z" p-id="8469" fill="#ffffff"></path><path d="M1002.728534 419.661965l-78.513168-78.513168c-24.013927-24.013927-65.822125-24.013927-89.836051 0L541.664623 633.862465l-43.98477 212.396411 212.396411-43.98477 292.713668-292.713668C1027.489474 484.737076 1027.489474 444.422905 1002.728534 419.661965zM621.301382 644.310422l180.695409-180.695409 78.326926 78.326926L699.651844 722.613812 621.301382 644.310422zM591.948867 705.030341l46.978964 46.955428-59.250452 12.275581L591.948867 705.030341zM925.365562 496.900094l-78.326926-78.326926 32.257681-32.257681 78.389348 78.264505L925.365562 496.900094z" p-id="8470" fill="#ffffff"></path></svg>