<?xml version="1.0" standalone="no"?><!DOCTYPE svg PUBLIC "-//W3C//DTD SVG 1.1//EN" "http://www.w3.org/Graphics/SVG/1.1/DTD/svg11.dtd"><svg t="1492411619150" class="icon" style="" viewBox="0 0 1024 1024" version="1.1" xmlns="http://www.w3.org/2000/svg" p-id="7563" xmlns:xlink="http://www.w3.org/1999/xlink" width="32" height="32"><defs><style type="text/css"></style></defs><path d="M228.163513 947.106726c-39.908942 0-77.429487-15.544021-105.644085-43.766806l-1.859347-1.859347c-28.223808-28.205389-43.766806-65.724911-43.766806-105.644085 0-39.918151 15.542998-77.438697 43.766806-105.644085l192.573947-192.583157c28.223808-28.223808 65.74333-43.748387 105.653295-43.748387 39.899732 0 77.420277 15.524578 105.644085 43.748387l1.859347 1.859347c28.223808 28.205389 43.766806 65.724911 43.766806 105.644085 0 39.918151-15.544021 77.438697-43.766806 105.644085L333.807598 903.338896C305.593 931.562704 268.072455 947.106726 228.163513 947.106726zM418.887322 491.938082c-29.739325 0-57.70219 11.564383-78.731132 32.593326L147.582243 717.114564c-21.027919 21.027919-32.611745 48.991808-32.611745 78.721923 0 29.730115 11.582803 57.69298 32.611745 78.721923l1.859347 1.859347c21.027919 21.027919 48.982598 32.611745 78.721923 32.611745s57.69298-11.582803 78.721923-32.611745l192.583157-192.583157c21.027919-21.027919 32.611745-48.991808 32.611745-78.721923 0-29.730115-11.582803-57.69298-32.611745-78.721923l-1.859347-1.859347C476.580303 503.502465 448.617437 491.938082 418.887322 491.938082zM605.121887 570.139142c-39.908942 0-77.429487-15.524578-105.653295-43.748387l-1.859347-1.859347c-28.223808-28.205389-43.766806-65.724911-43.766806-105.644085s15.542998-77.438697 43.766806-105.644085l192.583157-192.583157c28.214599-28.223808 65.73412-43.766806 105.644085-43.766806s77.429487 15.542998 105.644085 43.766806l1.859347 1.859347c28.223808 28.205389 43.766806 65.724911 43.766806 105.644085s-15.542998 77.438697-43.766806 105.644085L710.764949 526.390755C682.541141 554.614563 645.021619 570.139142 605.121887 570.139142zM795.836487 114.971521c-29.739325 0-57.69298 11.582803-78.721923 32.611745L524.531408 340.166423c-21.027919 21.027919-32.611745 48.991808-32.611745 78.721923s11.582803 57.69298 32.611745 78.721923l1.859347 1.859347c21.027919 21.027919 48.991808 32.593326 78.731132 32.593326 29.730115 0 57.69298-11.564383 78.721923-32.593326l192.573947-192.583157c21.027919-21.027919 32.611745-48.991808 32.611745-78.721923s-11.582803-57.69298-32.611745-78.721923l-1.859347-1.859347C853.529467 126.554324 825.574788 114.971521 795.836487 114.971521zM373.73496 669.312862c-4.870938 0-9.742898-1.859347-13.461593-5.578042-7.437389-7.437389-7.437389-19.484773 0-26.922163l269.25028-269.25949c7.437389-7.437389 19.484773-7.437389 26.922163 0s7.437389 19.484773 0 26.922163L387.196553 663.73482C383.477858 667.453515 378.606921 669.312862 373.73496 669.312862z" p-id="7564" fill="#ffffff"></path></svg>