<?xml version="1.0" standalone="no"?><!DOCTYPE svg PUBLIC "-//W3C//DTD SVG 1.1//EN" "http://www.w3.org/Graphics/SVG/1.1/DTD/svg11.dtd"><svg width="32" height="32" viewBox="0 0 32 32" version="1.1" xmlns="http://www.w3.org/2000/svg" xmlns:xlink="http://www.w3.org/1999/xlink"><defs><style type="text/css"><![CDATA[
@font-face { font-family: ifont; src: url(http://at.alicdn.com/t/font_1442373896_4754455.eot?#iefix) format(embedded-opentype), url(http://at.alicdn.com/t/font_1442373896_4754455.woff) format(woff), url(http://at.alicdn.com/t/font_1442373896_4754455.ttf) format(truetype), url(http://at.alicdn.com/t/font_1442373896_4754455.svg#ifont) format(svg); }

]]></style></defs><g class="transform-group"><g transform="scale(0.03125, 0.03125)"><path d="M440.394 440.394l179.016 125.31-179.016 125.31v-250.623zM737.561 354.466c-10.74-17.902-28.642-35.802-46.544-57.285-17.902-17.902-39.383-35.802-57.285-50.125-28.642-17.902-42.964-21.482-50.124-21.482h-279.264c-21.482 0-42.964 21.482-42.964 46.544v483.342c0 21.482 21.482 42.964 42.964 42.964h411.736c25.062 0 46.544-21.482 46.544-46.544v-347.29c0-7.162-3.578-21.482-25.062-50.125v0zM665.953 322.243c17.902 17.902 32.224 32.224 39.384 46.544h-85.928v-85.928c14.322 10.74 28.643 21.482 46.544 39.383v0 0zM726.82 755.462c0 3.579-3.578 10.74-10.74 10.74h-411.736c-3.579-3.579-7.162-7.162-7.162-10.74v-483.342c0-7.162 3.578-10.74 7.162-10.74h279.264v125.31c0 10.74 7.162 17.902 17.902 17.902h125.31v350.871zM726.82 755.462z" fill="#ffffff"></path></g></g></svg>