<?xml version="1.0" standalone="no"?><!DOCTYPE svg PUBLIC "-//W3C//DTD SVG 1.1//EN" "http://www.w3.org/Graphics/SVG/1.1/DTD/svg11.dtd"><svg width="32" height="32" viewBox="0 0 32 32" version="1.1" xmlns="http://www.w3.org/2000/svg" xmlns:xlink="http://www.w3.org/1999/xlink"><defs><style type="text/css"><![CDATA[
@font-face { font-family: ifont; src: url(http://at.alicdn.com/t/font_1442373896_4754455.eot?#iefix) format(embedded-opentype), url(http://at.alicdn.com/t/font_1442373896_4754455.woff) format(woff), url(http://at.alicdn.com/t/font_1442373896_4754455.ttf) format(truetype), url(http://at.alicdn.com/t/font_1442373896_4754455.svg#ifont) format(svg); }

]]></style></defs><g class="transform-group"><g transform="scale(0.03125, 0.03125)"><path d="M749.575 451.305l-104.865-131.081c-17.211-28.672-49.691-26.217-78.647-26.217h-104.866c-28.956 0-61.882-4.873-78.647 26.217l-104.865 131.081c0 2.748-26.215 32.82-26.215 52.432v157.297c0 28.956 23.477 52.432 52.435 52.432h419.46c28.956 0 52.43-23.477 52.43-52.432v-157.297c0-19.407-26.217-49.536-26.217-52.432zM395.654 343.164c15.090-27.202 44.722-22.939 70.783-22.939h94.379c26.062 0 55.292-2.15 70.784 22.939l94.379 114.695c0 1.365 6.85 9.653 13.17 19.663h-146.873v78.649h-157.297v-78.649h-146.947c6.338-10.061 13.242-18.361 13.242-19.663l94.379-114.695zM749.575 647.888c0 25.338-14.612 39.367-40.673 39.367h-390.543c-26.063 0-40.676-14.028-40.676-39.367v-144.149h131.081v65.541c0 7.237 5.871 13.108 13.108 13.108h183.513c7.237 0 13.108-5.871 13.108-13.108v-65.541h131.081v144.149z" fill="#ffffff"></path></g></g></svg>