<?xml version="1.0" standalone="no"?><!DOCTYPE svg PUBLIC "-//W3C//DTD SVG 1.1//EN" "http://www.w3.org/Graphics/SVG/1.1/DTD/svg11.dtd"><svg t="1492411301078" class="icon" style="" viewBox="0 0 1024 1024" version="1.1" xmlns="http://www.w3.org/2000/svg" p-id="4343" xmlns:xlink="http://www.w3.org/1999/xlink" width="32" height="32"><defs><style type="text/css"></style></defs><path d="M806.158566 806.272218 806.158566 806.272218C968.613811 643.816973 968.613811 380.41729 806.158566 217.962045 643.70039 55.50387 380.299974 55.503138 217.84473 217.958383 55.383625 380.419488 55.386555 643.817706 217.84473 806.275882 380.299974 968.731126 643.697462 968.733325 806.158566 806.272218L806.158566 806.272218ZM855.938883 856.052538 855.938883 856.052538C665.98623 1046.005187 358.013933 1046.005718 168.064413 856.056198-21.887608 666.104179-21.888667 358.131146 168.064413 168.178066 358.012995-21.770518 665.988227-21.768929 855.938883 168.181728 1045.88704 358.129885 1045.88704 666.104381 855.938883 856.052538L855.938883 856.052538Z" p-id="4344" fill="#ffffff"></path><path d="M545.858051 315.970542 764.799808 536.832842 764.799808 487.270378 545.727056 708.264822C532.040758 722.071174 532.138083 744.358368 545.944435 758.044666 559.750787 771.73096 582.037981 771.633635 595.724278 757.827286L814.79703 536.832842C828.398883 523.111674 828.398883 500.991542 814.79703 487.270378L595.855274 266.408078C582.168979 252.601727 559.881782 252.504403 546.07543 266.190699 532.269078 279.876996 532.171757 302.16419 545.858051 315.970542L545.858051 315.970542Z" p-id="4345" fill="#ffffff"></path><path d="M321.551485 315.970542 540.493242 536.832842 540.493242 487.270378 321.420486 708.264822C307.734191 722.071174 307.831515 744.358368 321.637866 758.044666 335.444218 771.73096 357.731414 771.633635 371.417709 757.827286L590.490464 536.832842C604.092314 523.111674 604.092314 500.991542 590.490464 487.270378L371.548707 266.408078C357.86241 252.601727 335.575216 252.504403 321.768864 266.190699 307.962511 279.876996 307.865187 302.16419 321.551485 315.970542L321.551485 315.970542Z" p-id="4346" fill="#ffffff"></path><path d="M543.412224 481.246685 233.674067 485.888989C214.235827 486.180326 198.714196 502.174307 199.005532 521.612547 199.29687 541.05079 215.290852 556.572419 234.729092 556.281085L544.467251 551.638781C563.905491 551.347443 579.42712 535.353462 579.135786 515.915222 578.844448 496.476982 562.850464 480.95535 543.412224 481.246685L543.412224 481.246685Z" p-id="4347" fill="#ffffff"></path></svg>