<?xml version="1.0" standalone="no"?><!DOCTYPE svg PUBLIC "-//W3C//DTD SVG 1.1//EN" "http://www.w3.org/Graphics/SVG/1.1/DTD/svg11.dtd"><svg t="1484189679175" class="icon" style="" viewBox="0 0 1064 1024" version="1.1" xmlns="http://www.w3.org/2000/svg" p-id="10327" xmlns:xlink="http://www.w3.org/1999/xlink" width="33.25" height="32"><defs><style type="text/css"></style></defs><path d="M725.388 357.44l-15.185 15.184-45.538-45.544 22.775-22.739c12.546-12.558 32.951-12.558 45.538 0 12.563 12.558 12.563 32.951 0 45.546l-7.587 7.552zM717.801 319.523c-4.197-4.199-10.988-4.199-15.176 0l-7.596 7.592 15.176 15.18 7.596-7.592c4.163-4.198 4.163-10.988 0-15.18v0zM469.2 552.948l15.176 15.176 195.474-195.501 15.176 15.176-195.466 195.482-0.397-0.41-54.876 9.697 9.697-54.864 0.058 0.066 195.472-195.476 15.176 15.18-195.493 195.473zM522.485 288.605c-124.469 0-225.371 100.897-225.371 225.396 0 124.477 100.901 225.371 225.371 225.371 124.498 0 225.398-100.894 225.398-225.371 0-40.199-10.586-77.941-29.032-110.64l15.701-15.714c22.068 36.936 34.778 80.131 34.778 126.329 0 136.318-110.523 246.841-246.845 246.841-136.318 0-246.845-110.523-246.845-246.841 0-136.358 110.525-246.85 246.845-246.85 43.378 0 84.114 11.229 119.564 30.852l-15.89 15.892c-31.041-16.102-66.278-25.267-103.674-25.267v0z" p-id="10328" fill="#ffffff"></path></svg>