<?xml version="1.0" standalone="no"?><!DOCTYPE svg PUBLIC "-//W3C//DTD SVG 1.1//EN" "http://www.w3.org/Graphics/SVG/1.1/DTD/svg11.dtd"><svg width="32" height="32" viewBox="0 0 32 32" version="1.1" xmlns="http://www.w3.org/2000/svg" xmlns:xlink="http://www.w3.org/1999/xlink"><defs><style type="text/css"><![CDATA[
@font-face { font-family: ifont; src: url(http://at.alicdn.com/t/font_1442373896_4754455.eot?#iefix) format(embedded-opentype), url(http://at.alicdn.com/t/font_1442373896_4754455.woff) format(woff), url(http://at.alicdn.com/t/font_1442373896_4754455.ttf) format(truetype), url(http://at.alicdn.com/t/font_1442373896_4754455.svg#ifont) format(svg); }

]]></style></defs><g class="transform-group"><g transform="scale(0.03125, 0.03125)"><path d="M769.206 260.108c0.84-5.631-1.483-11.441-6.009-14.907-4.73-3.622-11.287-4.293-16.642-1.675l-479.35 234.133c-4.996 2.44-8.348 7.317-8.835 12.851-0.486 5.533 1.964 10.92 6.458 14.192l122.15 88.956v172.553c0 6.772 4.311 12.798 10.726 14.99 1.688 0.577 3.421 0.858 5.138 0.858 4.809 0 9.475-2.188 12.538-6.136l80.382-103.484 119.587 89.807c4.226 3.175 9.761 4.036 14.754 2.3 4.996-1.739 8.794-5.847 10.133-10.961l128.639-491.814c0.142-0.548 0.245-1.104 0.329-1.662 0.024-0.157-0.038 0.266 0 0v0zM304.795 494.581l360.587-176.126-263.797 246.614-96.791-70.489zM418.71 592.472l246.601-230.536-185.402 279.207-61.197 78.787v-127.458zM615.516 722.715l-101.217-76.014 199.795-300.886-98.58 376.898z" fill="#ffffff"></path></g></g></svg>