<?xml version="1.0" standalone="no"?><!DOCTYPE svg PUBLIC "-//W3C//DTD SVG 1.1//EN" "http://www.w3.org/Graphics/SVG/1.1/DTD/svg11.dtd"><svg width="64" height="64" viewBox="0 0 64 64" version="1.1" xmlns="http://www.w3.org/2000/svg" xmlns:xlink="http://www.w3.org/1999/xlink"><defs><style type="text/css"><![CDATA[
@font-face { font-family: ifont; src: url(http://at.alicdn.com/t/font_1442373896_4754455.eot?#iefix) format(embedded-opentype), url(http://at.alicdn.com/t/font_1442373896_4754455.woff) format(woff), url(http://at.alicdn.com/t/font_1442373896_4754455.ttf) format(truetype), url(http://at.alicdn.com/t/font_1442373896_4754455.svg#ifont) format(svg); }

]]></style></defs><g class="transform-group"><g transform="scale(0.0625, 0.0625)"><path d="M679.176 268.286c9.222-4.658 19.808-7.307 31.072-7.307 35.65-0.001 64.553 26.562 64.553 59.33 0 13.67-5.043 26.265-13.493 36.298l-82.132-88.32zM774.804 511.993c0 145.238-117.737 262.981-262.976 262.981s-262.975-117.743-262.975-262.981c0-145.238 117.736-262.969 262.975-262.969 145.238 0 262.976 117.731 262.976 262.969zM511.829 296.837c-118.834 0-215.163 96.327-215.163 215.155 0 118.834 96.327 215.168 215.163 215.168 118.834 0 215.163-96.334 215.163-215.168 0-118.827-96.327-215.155-215.163-215.155zM491.191 606.179c-0.070 0.654-76.343-65.931-97.263-86.744-25.542-25.415 8.054-51.217 29.020-30.315 17.603 17.557 68.708 61.57 68.243 61.074 0 0 97.273-81.548 114.374-98.475 23.65-23.399 49.703 5.86 30.094 25.378-24.747 24.631-145.937 130.532-144.468 129.084zM248.854 320.308c0-32.768 28.904-59.331 64.558-59.331 11.258 0 21.852 2.65 31.068 7.307l-82.139 88.32c-8.458-10.032-13.49-22.629-13.49-36.297z" fill="#fff"></path></g></g></svg>