<?xml version="1.0" standalone="no"?><!DOCTYPE svg PUBLIC "-//W3C//DTD SVG 1.1//EN" "http://www.w3.org/Graphics/SVG/1.1/DTD/svg11.dtd"><svg width="64" height="64" viewBox="0 0 64 64" version="1.1" xmlns="http://www.w3.org/2000/svg" xmlns:xlink="http://www.w3.org/1999/xlink"><defs><style type="text/css"><![CDATA[
@font-face { font-family: ifont; src: url(http://at.alicdn.com/t/font_1442373896_4754455.eot?#iefix) format(embedded-opentype), url(http://at.alicdn.com/t/font_1442373896_4754455.woff) format(woff), url(http://at.alicdn.com/t/font_1442373896_4754455.ttf) format(truetype), url(http://at.alicdn.com/t/font_1442373896_4754455.svg#ifont) format(svg); }

]]></style></defs><g class="transform-group"><g transform="scale(0.0625, 0.0625)"><path d="M641.596 503.98c0-4.355-3.412-7.863-7.611-7.863h-152.49c-4.183 0-7.611 3.522-7.611 7.863v15.724c0 4.34 3.443 7.863 7.611 7.863h152.49c4.213 0 7.611-3.522 7.611-7.863v-15.724zM733.079 260.259h-350.692c-16.84 0-30.488 14.088-30.488 31.448v94.344h-60.994c-16.825 0-30.488 14.088-30.488 31.449v314.48c0 17.375 13.664 31.448 30.488 31.448h60.994c0.047 0 0.094 0 0.157 0 4.246 0.709 13.035 0 30.33 0h274.463c8.413 0 15.252-7.028 15.252-15.692 0-8.711-6.841-15.74-15.252-15.74h-259.209c-14.89 0-15.252 0.063-15.252-15.74v-408.823c0-8.695 6.841-15.724 15.252-15.724h320.202c8.428 0 15.236 7.028 15.236 15.724v455.995c16.871 0 30.504-14.073 30.504-31.433v-440.287c0-17.359-13.633-31.449-30.504-31.449v0zM351.898 731.995h-45.741c-8.428 0-15.251-7.028-15.251-15.74v-283.031c0-8.695 6.825-15.724 15.251-15.724h45.741v314.497zM633.986 590.462h-152.49c-4.183 0-7.611 3.538-7.611 7.847v15.74c0 4.339 3.443 7.878 7.611 7.878h152.49c4.213 0 7.611-3.538 7.611-7.878v-15.74c0-4.309-3.412-7.847-7.611-7.847v0zM641.596 409.635c0-4.355-3.412-7.862-7.611-7.862h-152.49c-4.183 0-7.611 3.522-7.611 7.862v15.724c0 4.34 3.443 7.862 7.611 7.862h152.49c4.213 0 7.611-3.522 7.611-7.862v-15.724zM641.596 409.635z" fill="#fff"></path></g></g></svg>